solid Onshape
  facet normal 0 0 -1
    outer loop
      vertex 0 0 0
      vertex -1.11022e-16 1.5 0
      vertex 0.5 0 0
    endloop
  endfacet
  facet normal 0 0 -1
    outer loop
      vertex -1.11022e-16 1.5 0
      vertex 1.5 1.5 0
      vertex 0.5 0 0
    endloop
  endfacet
  facet normal 0 0 -1
    outer loop
      vertex 0.5 0 0
      vertex 1.5 1.5 0
      vertex 1.5 0.36397 0
    endloop
  endfacet
  facet normal 0 0 1
    outer loop
      vertex 1.5 0.36397 1
      vertex 1.5 1.5 1
      vertex 0.5 0 1
    endloop
  endfacet
  facet normal 0 0 1
    outer loop
      vertex 1.5 1.5 1
      vertex -1.11022e-16 1.5 1
      vertex 0.5 0 1
    endloop
  endfacet
  facet normal 0 0 1
    outer loop
      vertex 0.5 0 1
      vertex -1.11022e-16 1.5 1
      vertex 0 0 1
    endloop
  endfacet
  facet normal 1 0 0
    outer loop
      vertex 1.5 1.5 1
      vertex 1.5 0.36397 1
      vertex 1.5 1.5 0
    endloop
  endfacet
  facet normal 1 0 0
    outer loop
      vertex 1.5 0.36397 1
      vertex 1.5 0.36397 0
      vertex 1.5 1.5 0
    endloop
  endfacet
  facet normal 0 1 0
    outer loop
      vertex -1.11022e-16 1.5 1
      vertex 1.5 1.5 1
      vertex -1.11022e-16 1.5 0
    endloop
  endfacet
  facet normal 0 1 0
    outer loop
      vertex 1.5 1.5 1
      vertex 1.5 1.5 0
      vertex -1.11022e-16 1.5 0
    endloop
  endfacet
  facet normal 0 -1 0
    outer loop
      vertex 0.5 0 1
      vertex 0 0 1
      vertex 0.5 0 0
    endloop
  endfacet
  facet normal 0 -1 0
    outer loop
      vertex 0 0 1
      vertex 0 0 0
      vertex 0.5 0 0
    endloop
  endfacet
  facet normal -1 -7.40149e-17 0
    outer loop
      vertex 0 0 1
      vertex -1.11022e-16 1.5 1
      vertex 0 0 0
    endloop
  endfacet
  facet normal -1 -7.40149e-17 0
    outer loop
      vertex -1.11022e-16 1.5 1
      vertex -1.11022e-16 1.5 0
      vertex 0 0 0
    endloop
  endfacet
  facet normal 0.34202 -0.939693 0
    outer loop
      vertex 1.5 0.36397 1
      vertex 0.5 0 1
      vertex 1.5 0.36397 0
    endloop
  endfacet
  facet normal 0.34202 -0.939693 0
    outer loop
      vertex 0.5 0 1
      vertex 0.5 0 0
      vertex 1.5 0.36397 0
    endloop
  endfacet
endsolid Onshape
